<svg xmlns="http://www.w3.org/2000/svg" xmlns:xlink="http://www.w3.org/1999/xlink" width="1em" height="1em" preserveAspectRatio="xMidYMid meet" viewBox="0 0 24 24" style="-ms-transform: rotate(360deg); -webkit-transform: rotate(360deg); transform: rotate(360deg);"><g fill="none"><path d="M6.25 4h11.5a3.25 3.25 0 0 1 3.245 3.066L21 7.25v9.5a3.25 3.25 0 0 1-3.066 3.245L17.75 20H6.25a3.25 3.25 0 0 1-3.245-3.066L3 16.75v-9.5a3.25 3.25 0 0 1 3.066-3.245L6.25 4h11.5h-11.5zm11.5 1.5H6.25a1.75 1.75 0 0 0-1.744 1.606L4.5 7.25v9.5a1.75 1.75 0 0 0 1.606 1.744l.144.006h11.5a1.75 1.75 0 0 0 1.744-1.607l.006-.143v-9.5a1.75 1.75 0 0 0-1.607-1.744L17.75 5.5zm-7.697 4.085a.5.5 0 0 1 .587-.256l.084.033l4.382 2.19a.5.5 0 0 1 .076.848l-.076.047l-4.382 2.191a.5.5 0 0 1-.716-.357L10 14.19V9.809a.5.5 0 0 1 .053-.224z" fill="currentColor"/></g></svg>