<svg xmlns="http://www.w3.org/2000/svg" xmlns:xlink="http://www.w3.org/1999/xlink" width="1em" height="1em" preserveAspectRatio="xMidYMid meet" viewBox="0 0 24 24" style="-ms-transform: rotate(360deg); -webkit-transform: rotate(360deg); transform: rotate(360deg);"><g fill="none"><path d="M11.513 2.048a.75.75 0 0 0-1.013.702v12.127a4 4 0 1 0 1.476 3.56a.749.749 0 0 0 .024-.187V8.832l6.987 2.62A.75.75 0 0 0 20 10.75V7.483a3.25 3.25 0 0 0-2.109-3.044l-6.378-2.391zM10.5 18a2.5 2.5 0 1 1-5 0a2.5 2.5 0 0 1 5 0zm8-8.332L12 7.23V3.832l5.364 2.012A1.75 1.75 0 0 1 18.5 7.483v2.185z" fill="currentColor"/></g></svg>