<svg xmlns="http://www.w3.org/2000/svg" xmlns:xlink="http://www.w3.org/1999/xlink" width="1em" height="1em" preserveAspectRatio="xMidYMid meet" viewBox="0 0 24 24" style="-ms-transform: rotate(360deg); -webkit-transform: rotate(360deg); transform: rotate(360deg);"><g fill="none"><path d="M10.5 8.25a.75.75 0 0 0-1.5 0v7.5a.75.75 0 0 0 1.5 0v-7.5zm4.5 0a.75.75 0 0 0-1.5 0v7.5a.75.75 0 0 0 1.5 0v-7.5zM12 2C6.477 2 2 6.477 2 12s4.477 10 10 10s10-4.477 10-10S17.523 2 12 2zM3.5 12a8.5 8.5 0 1 1 17 0a8.5 8.5 0 0 1-17 0z" fill="currentColor"/></g></svg>