<svg xmlns="http://www.w3.org/2000/svg" xmlns:xlink="http://www.w3.org/1999/xlink" width="1em" height="1em" preserveAspectRatio="xMidYMid meet" viewBox="0 0 24 24" style="-ms-transform: rotate(360deg); -webkit-transform: rotate(360deg); transform: rotate(360deg);"><g fill="none"><path d="M18.25 20.5a.75.75 0 1 1 0 1.5l-13 .004a.75.75 0 1 1 0-1.5l13-.004zM11.648 2.012l.102-.007a.75.75 0 0 1 .743.648l.007.102l-.001 13.685l3.722-3.72a.75.75 0 0 1 .976-.073l.085.073a.75.75 0 0 1 .072.976l-.073.084l-4.997 4.997a.75.75 0 0 1-.976.073l-.085-.073l-5.003-4.996a.75.75 0 0 1 .976-1.134l.084.072l3.719 3.714L11 2.755a.75.75 0 0 1 .648-.743l.102-.007l-.102.007z" fill="currentColor"/></g></svg>